<svg width="328" height="84" viewBox="0 0 328 84" fill="none" xmlns="http://www.w3.org/2000/svg">
<path d="M58.1904 2.06717C61.2342 1.5678 63.9999 3.91631 64 7.00076V17.7683L46.1367 20.9002C43.7448 21.3195 42 23.3966 42 25.825V56.4031C42.0002 58.8313 43.745 60.9087 46.1367 61.3279L64 64.4578V76.2263C64 79.3109 61.2343 81.6603 58.1904 81.1609L4.19043 72.3015C1.77377 71.905 0 69.8159 0 67.367V15.8601C0.000109479 13.4113 1.77388 11.3231 4.19043 10.9265L58.1904 2.06717Z" fill="#004EE0"/>
<path d="M90.5455 22.5227V15.4545H127.682V22.5227H113.295V62H104.932V22.5227H90.5455ZM143.589 62.6818C140.089 62.6818 137.067 61.9545 134.521 60.5C131.991 59.0303 130.044 56.9545 128.68 54.2727C127.317 51.5758 126.635 48.4015 126.635 44.75C126.635 41.1591 127.317 38.0076 128.68 35.2955C130.059 32.5682 131.983 30.447 134.453 28.9318C136.923 27.4015 139.824 26.6364 143.158 26.6364C145.309 26.6364 147.339 26.9848 149.248 27.6818C151.173 28.3636 152.87 29.4242 154.339 30.8636C155.824 32.303 156.991 34.1364 157.839 36.3636C158.688 38.5758 159.112 41.2121 159.112 44.2727V46.7955H130.498V41.25H151.226C151.211 39.6742 150.87 38.2727 150.203 37.0455C149.536 35.803 148.604 34.8258 147.408 34.1136C146.226 33.4015 144.847 33.0455 143.271 33.0455C141.589 33.0455 140.112 33.4545 138.839 34.2727C137.567 35.0758 136.574 36.1364 135.862 37.4545C135.165 38.7576 134.809 40.1894 134.794 41.75V46.5909C134.794 48.6212 135.165 50.3636 135.908 51.8182C136.65 53.2576 137.688 54.3636 139.021 55.1364C140.354 55.8939 141.915 56.2727 143.703 56.2727C144.9 56.2727 145.983 56.1061 146.953 55.7727C147.923 55.4242 148.764 54.9167 149.476 54.25C150.188 53.5833 150.726 52.7576 151.089 51.7727L158.771 52.6364C158.286 54.6667 157.362 56.4394 155.998 57.9545C154.65 59.4545 152.923 60.6212 150.817 61.4545C148.711 62.2727 146.301 62.6818 143.589 62.6818ZM170.77 27.0909L177.815 39.9773L184.974 27.0909H193.679L183.156 44.5455L193.86 62H185.201L177.815 49.4318L170.497 62H161.77L172.406 44.5455L162.042 27.0909H170.77ZM216.194 27.0909V33.4545H196.126V27.0909H216.194ZM201.08 18.7273H209.308V51.5C209.308 52.6061 209.474 53.4545 209.808 54.0455C210.156 54.6212 210.611 55.0152 211.171 55.2273C211.732 55.4394 212.353 55.5455 213.035 55.5455C213.55 55.5455 214.02 55.5076 214.444 55.4318C214.883 55.3561 215.217 55.2879 215.444 55.2273L216.83 61.6591C216.391 61.8106 215.762 61.9773 214.944 62.1591C214.141 62.3409 213.156 62.447 211.99 62.4773C209.929 62.5379 208.073 62.2273 206.421 61.5455C204.77 60.8485 203.459 59.7727 202.49 58.3182C201.535 56.8636 201.065 55.0455 201.08 52.8636V18.7273ZM236.874 62.6818C233.374 62.6818 230.352 61.9545 227.806 60.5C225.276 59.0303 223.329 56.9545 221.965 54.2727C220.602 51.5758 219.92 48.4015 219.92 44.75C219.92 41.1591 220.602 38.0076 221.965 35.2955C223.344 32.5682 225.268 30.447 227.738 28.9318C230.208 27.4015 233.109 26.6364 236.443 26.6364C238.594 26.6364 240.624 26.9848 242.533 27.6818C244.458 28.3636 246.155 29.4242 247.624 30.8636C249.109 32.303 250.276 34.1364 251.124 36.3636C251.973 38.5758 252.397 41.2121 252.397 44.2727V46.7955H223.783V41.25H244.511C244.496 39.6742 244.155 38.2727 243.488 37.0455C242.821 35.803 241.889 34.8258 240.693 34.1136C239.511 33.4015 238.132 33.0455 236.556 33.0455C234.874 33.0455 233.397 33.4545 232.124 34.2727C230.852 35.0758 229.859 36.1364 229.147 37.4545C228.45 38.7576 228.094 40.1894 228.079 41.75V46.5909C228.079 48.6212 228.45 50.3636 229.193 51.8182C229.935 53.2576 230.973 54.3636 232.306 55.1364C233.639 55.8939 235.2 56.2727 236.988 56.2727C238.185 56.2727 239.268 56.1061 240.238 55.7727C241.208 55.4242 242.049 54.9167 242.761 54.25C243.473 53.5833 244.011 52.7576 244.374 51.7727L252.056 52.6364C251.571 54.6667 250.647 56.4394 249.283 57.9545C247.935 59.4545 246.208 60.6212 244.102 61.4545C241.996 62.2727 239.586 62.6818 236.874 62.6818ZM258.077 62V27.0909H266.055V32.9091H266.418C267.055 30.8939 268.145 29.3409 269.691 28.25C271.252 27.1439 273.032 26.5909 275.032 26.5909C275.486 26.5909 275.994 26.6136 276.555 26.6591C277.13 26.6894 277.608 26.7424 277.986 26.8182V34.3864C277.638 34.2652 277.085 34.1591 276.327 34.0682C275.585 33.9621 274.865 33.9091 274.168 33.9091C272.668 33.9091 271.32 34.2348 270.123 34.8864C268.941 35.5227 268.009 36.4091 267.327 37.5455C266.645 38.6818 266.305 39.9924 266.305 41.4773V62H258.077ZM288.348 75.0909C287.227 75.0909 286.189 75 285.235 74.8182C284.295 74.6515 283.545 74.4545 282.985 74.2273L284.894 67.8182C286.091 68.1667 287.159 68.3333 288.098 68.3182C289.038 68.303 289.864 68.0076 290.576 67.4318C291.303 66.8712 291.917 65.9318 292.417 64.6136L293.121 62.7273L280.462 27.0909H289.189L297.235 53.4545H297.598L305.667 27.0909H314.417L300.439 66.2273C299.788 68.0758 298.924 69.6591 297.848 70.9773C296.773 72.3106 295.454 73.3258 293.894 74.0227C292.348 74.7348 290.5 75.0909 288.348 75.0909Z" fill="black"/>
<path d="M10 31.8529V27H35V31.8529H25.7895V57H19.2105V31.8529H10Z" fill="#FAFDFF"/>
<path d="M45 28.5123C45 25.9974 46.868 23.8738 49.3624 23.5531L74.3624 20.3388C77.3523 19.9544 80 22.2835 80 25.298V57.93C80 60.9445 77.3523 63.2736 74.3624 62.8892L49.3624 59.6749C46.868 59.3542 45 57.2306 45 54.7157V28.5123Z" fill="black"/>
<path d="M66 48H63.3731L62.3881 45.0857H58.2836L57.2985 48H55L58.9403 36H61.8955L66 48Z" fill="#FAFDFF"/>
<rect x="67" y="36" width="2" height="12" fill="#FAFDFF"/>
<path d="M62 43H59L60.4042 38.3193C60.4327 38.2243 60.5673 38.2243 60.5958 38.3193L62 43Z" fill="black"/>
</svg>
