<svg width="48" height="48" viewBox="0 0 48 48" fill="none" xmlns="http://www.w3.org/2000/svg">
<path fill-rule="evenodd" clip-rule="evenodd" d="M23.225 6.60305C23.711 6.46305 24.225 6.46305 24.711 6.60305C25.747 6.89705 26.791 7.16905 27.839 7.44305C32.761 8.72505 37.759 10.029 42.207 13.651L44.255 15.319C45.085 15.995 45.501 16.999 45.501 17.999V31.999C45.501 32.3969 45.3429 32.7784 45.0616 33.0597C44.7803 33.341 44.3988 33.499 44.001 33.499C43.6031 33.499 43.2216 33.341 42.9403 33.0597C42.659 32.7784 42.501 32.3969 42.501 31.999V22.113L42.175 22.379C40.7015 23.5737 39.0916 24.5895 37.379 25.405C37.459 25.5877 37.4996 25.7857 37.501 25.999V34.587C37.5009 35.6944 37.1666 36.776 36.5418 37.6902C35.9169 38.6044 35.0307 39.3088 33.999 39.711L25.999 42.831C24.7141 43.332 23.2878 43.332 22.003 42.831L14.003 39.711C12.9712 39.3088 12.085 38.6044 11.4602 37.6902C10.8353 36.776 10.501 35.6944 10.501 34.587V25.999C10.5023 25.7817 10.545 25.579 10.629 25.391C8.96895 24.593 7.34895 23.611 5.79495 22.347L3.74695 20.679C2.08695 19.325 2.08695 16.673 3.74695 15.319L5.82695 13.619C10.241 10.019 15.205 8.72105 20.091 7.44505C21.1387 7.17584 22.1834 6.89516 23.225 6.60305ZM42.501 18.001C42.501 17.821 42.429 17.701 42.361 17.645L40.313 15.977C36.001 12.999 32.157 11.685 27.281 10.403C26.1742 10.1161 25.0701 9.81878 23.969 9.51105C22.829 9.83305 21.721 10.125 20.645 10.409C15.805 11.681 11.587 12.791 7.72495 15.945L5.64295 17.643C5.57295 17.699 5.50095 17.817 5.50095 17.997C5.50095 18.177 5.57295 18.297 5.64095 18.353L7.69095 20.021C11.587 23.195 15.843 24.313 20.721 25.595C21.7943 25.8724 22.8983 26.1697 24.033 26.487C25.173 26.165 26.281 25.873 27.357 25.589C32.197 24.317 36.415 23.207 40.277 20.055L42.359 18.355C42.429 18.299 42.501 18.181 42.501 18.001ZM27.913 28.553C30.113 27.979 32.327 27.399 34.501 26.609V34.587C34.501 35.617 33.869 36.541 32.909 36.917L24.909 40.035C24.325 40.2627 23.6769 40.2627 23.093 40.035L15.093 36.915C14.6241 36.7323 14.2214 36.4123 13.9373 35.997C13.6533 35.5816 13.5012 35.0902 13.501 34.587V26.591C15.699 27.391 17.939 27.975 20.161 28.555C21.211 28.829 22.255 29.101 23.291 29.395C23.777 29.535 24.291 29.535 24.777 29.395C25.815 29.099 26.861 28.827 27.913 28.553Z" fill="#464551"/>
</svg>
