<svg width="214" height="55" viewBox="0 0 214 55" fill="none" xmlns="http://www.w3.org/2000/svg">
<path d="M35.9463 1.6797C38.9902 1.18032 41.7559 3.52971 41.7559 6.61427V11.5928L31.5391 13.3838C29.1473 13.8031 27.4024 15.8803 27.4023 18.3086V35.3399C27.4025 37.768 29.1473 39.8454 31.5391 40.2647L41.7559 42.0547V47.6875C41.7556 50.7719 38.99 53.1205 35.9463 52.6211L4.19043 47.4111C1.77393 47.0146 0.00020169 44.9263 0 42.4776V11.8242C0 9.37526 1.77378 7.28617 4.19043 6.88966L35.9463 1.6797Z" fill="#8D8D8D"/>
<path d="M57.4205 17.9801V12.9091H81.3125V17.9801H72.4062V42H66.3267V17.9801H57.4205ZM91.1126 42.4261C88.8683 42.4261 86.9365 41.9716 85.3172 41.0625C83.7073 40.1439 82.4668 38.8466 81.5956 37.1705C80.7244 35.4848 80.2888 33.4915 80.2888 31.1903C80.2888 28.946 80.7244 26.9763 81.5956 25.2812C82.4668 23.5862 83.6931 22.2652 85.2746 21.3182C86.8655 20.3712 88.731 19.8977 90.8712 19.8977C92.3106 19.8977 93.6505 20.1297 94.8911 20.5938C96.1411 21.0483 97.2301 21.7348 98.1581 22.6534C99.0956 23.572 99.8248 24.7273 100.346 26.1193C100.866 27.5019 101.127 29.1212 101.127 30.9773V32.6392H82.7036V28.8892H95.4308C95.4308 28.018 95.2414 27.2462 94.8626 26.5739C94.4839 25.9015 93.9583 25.3759 93.2859 24.9972C92.6231 24.6089 91.8513 24.4148 90.9706 24.4148C90.052 24.4148 89.2376 24.6278 88.5274 25.054C87.8267 25.4706 87.2774 26.0341 86.8797 26.7443C86.482 27.4451 86.2784 28.2263 86.2689 29.0881V32.6534C86.2689 33.733 86.4678 34.6657 86.8655 35.4517C87.2727 36.2377 87.8456 36.8438 88.5842 37.2699C89.3229 37.696 90.1988 37.9091 91.2121 37.9091C91.8844 37.9091 92.5 37.8144 93.0587 37.625C93.6174 37.4356 94.0956 37.1515 94.4933 36.7727C94.8911 36.3939 95.1941 35.9299 95.4024 35.3807L100.999 35.75C100.715 37.0947 100.133 38.2689 99.2518 39.2727C98.3806 40.267 97.2537 41.0436 95.8712 41.6023C94.4981 42.1515 92.9119 42.4261 91.1126 42.4261ZM108.942 20.1818L112.948 27.8097L117.053 20.1818H123.26L116.939 31.0909L123.431 42H117.252L112.948 34.4574L108.715 42H102.465L108.942 31.0909L102.692 20.1818H108.942ZM137.659 20.1818V24.7273H124.52V20.1818H137.659ZM127.503 14.9545H133.554V35.2955C133.554 35.8542 133.639 36.2898 133.81 36.6023C133.98 36.9053 134.217 37.1184 134.52 37.2415C134.832 37.3646 135.192 37.4261 135.599 37.4261C135.883 37.4261 136.167 37.4025 136.452 37.3551C136.736 37.2983 136.953 37.2557 137.105 37.2273L138.057 41.7301C137.754 41.8248 137.328 41.9337 136.778 42.0568C136.229 42.1894 135.561 42.2699 134.775 42.2983C133.317 42.3551 132.039 42.161 130.94 41.7159C129.851 41.2708 129.004 40.5795 128.398 39.642C127.792 38.7045 127.493 37.5208 127.503 36.0909V14.9545ZM150.51 42.4261C148.265 42.4261 146.333 41.9716 144.714 41.0625C143.104 40.1439 141.864 38.8466 140.992 37.1705C140.121 35.4848 139.686 33.4915 139.686 31.1903C139.686 28.946 140.121 26.9763 140.992 25.2812C141.864 23.5862 143.09 22.2652 144.671 21.3182C146.262 20.3712 148.128 19.8977 150.268 19.8977C151.707 19.8977 153.047 20.1297 154.288 20.5938C155.538 21.0483 156.627 21.7348 157.555 22.6534C158.492 23.572 159.222 24.7273 159.742 26.1193C160.263 27.5019 160.524 29.1212 160.524 30.9773V32.6392H142.1V28.8892H154.828C154.828 28.018 154.638 27.2462 154.26 26.5739C153.881 25.9015 153.355 25.3759 152.683 24.9972C152.02 24.6089 151.248 24.4148 150.367 24.4148C149.449 24.4148 148.635 24.6278 147.924 25.054C147.224 25.4706 146.674 26.0341 146.277 26.7443C145.879 27.4451 145.675 28.2263 145.666 29.0881V32.6534C145.666 33.733 145.865 34.6657 146.262 35.4517C146.67 36.2377 147.242 36.8438 147.981 37.2699C148.72 37.696 149.596 37.9091 150.609 37.9091C151.281 37.9091 151.897 37.8144 152.456 37.625C153.014 37.4356 153.492 37.1515 153.89 36.7727C154.288 36.3939 154.591 35.9299 154.799 35.3807L160.396 35.75C160.112 37.0947 159.529 38.2689 158.649 39.2727C157.778 40.267 156.651 41.0436 155.268 41.6023C153.895 42.1515 152.309 42.4261 150.51 42.4261ZM163.673 42V20.1818H169.539V23.9886H169.766C170.164 22.6345 170.832 21.6117 171.769 20.9205C172.707 20.2197 173.786 19.8693 175.008 19.8693C175.311 19.8693 175.638 19.8883 175.988 19.9261C176.338 19.964 176.646 20.0161 176.911 20.0824V25.4517C176.627 25.3665 176.234 25.2907 175.732 25.2244C175.23 25.1581 174.771 25.125 174.354 25.125C173.464 25.125 172.669 25.3191 171.968 25.7074C171.277 26.0862 170.728 26.6165 170.32 27.2983C169.923 27.9801 169.724 28.7661 169.724 29.6562V42H163.673ZM183.64 50.1818C182.873 50.1818 182.153 50.1203 181.481 49.9972C180.818 49.8835 180.268 49.7367 179.833 49.5568L181.196 45.0398C181.907 45.2576 182.546 45.3759 183.114 45.3949C183.692 45.4138 184.189 45.2813 184.606 44.9972C185.032 44.7131 185.377 44.2301 185.642 43.5483L185.998 42.625L178.171 20.1818H184.535L189.052 36.2045H189.279L193.838 20.1818H200.245L191.765 44.358C191.357 45.5322 190.803 46.5549 190.103 47.4261C189.411 48.3068 188.535 48.9839 187.475 49.4574C186.414 49.9403 185.136 50.1818 183.64 50.1818Z" fill="#FAFDFF"/>
<path d="M7 21.2353V18H22V21.2353H16.4737V38H12.5263V21.2353H7Z" fill="#262728"/>
<path d="M30 18.436C30 16.9118 31.1429 15.6299 32.6571 15.4556L50.6571 13.3846C52.438 13.1797 54 14.5723 54 16.365V36.635C54 38.4277 52.4381 39.8203 50.6571 39.6154L32.6571 37.5444C31.1429 37.3701 30 36.0882 30 34.564V18.436Z" fill="white"/>
<path d="M44 31H42.3284L41.7015 29.0571H39.0896L38.4627 31H37L39.5075 23H41.3881L44 31Z" fill="#262728"/>
<rect x="45" y="23" width="2" height="8" fill="#262728"/>
<path d="M41 28H40L40.4008 24.7938C40.4154 24.677 40.5846 24.677 40.5992 24.7938L41 28Z" fill="white"/>
</svg>
