<svg width="1121" height="753" viewBox="0 0 1121 753" fill="none" xmlns="http://www.w3.org/2000/svg">
<rect x="174" y="237" width="800" height="400" rx="20" fill="#262728"/>
<rect y="232.882" width="85" height="85" rx="20" transform="rotate(-15 0 232.882)" fill="#DBDBDB"/>
<rect x="42" y="183.647" width="45" height="45" rx="12" transform="rotate(-15 42 183.647)" fill="#3D3F40"/>
<path d="M509.154 522H653.846C661.111 522 667 516.111 667 508.846V364.154C667 356.889 661.111 351 653.846 351H509.154C501.889 351 496 356.889 496 364.154V508.846C496 516.111 501.889 522 509.154 522Z" stroke="#505050" stroke-width="5" stroke-linecap="round" stroke-linejoin="round"/>
<path d="M611 430C623.703 430 634 419.703 634 407C634 394.297 623.703 384 611 384C598.297 384 588 394.297 588 407C588 419.703 598.297 430 611 430Z" stroke="#505050" stroke-width="5" stroke-linecap="round" stroke-linejoin="round"/>
<path d="M612 522C607.798 499.712 595.779 479.636 578.089 465.353C560.399 451.071 538.188 443.512 515.419 444.024C508.904 444.007 502.401 444.606 496 445.814" stroke="#505050" stroke-width="5" stroke-linecap="round" stroke-linejoin="round"/>
<path d="M667 475.125C656.414 471.725 645.314 469.994 634.14 470C619.997 469.971 605.996 472.693 593 478" stroke="#505050" stroke-width="5" stroke-linecap="round" stroke-linejoin="round"/>
<rect x="97" y="344" width="300" height="200" rx="15" fill="#E9E9E9"/>
<rect x="821" y="251" width="300" height="200" rx="15" fill="#E9E9E9"/>
<rect x="821" y="503" width="200" height="120" rx="15" fill="#E9E9E9"/>
<path d="M944.385 386H1003.62C1006.59 386 1009 383.589 1009 380.615V321.385C1009 318.411 1006.59 316 1003.62 316H944.385C941.411 316 939 318.411 939 321.385V380.615C939 383.589 941.411 386 944.385 386Z" stroke="#505050" stroke-width="3" stroke-linecap="round" stroke-linejoin="round"/>
<path d="M986.075 348.339C991.275 348.339 995.491 344.124 995.491 338.924C995.491 333.724 991.275 329.509 986.075 329.509C980.875 329.509 976.66 333.724 976.66 338.924C976.66 344.124 980.875 348.339 986.075 348.339Z" stroke="#505050" stroke-width="3" stroke-linecap="round" stroke-linejoin="round"/>
<path d="M986.485 386C984.765 376.876 979.845 368.658 972.604 362.811C965.362 356.965 956.27 353.87 946.949 354.08C944.282 354.073 941.62 354.318 939 354.813" stroke="#505050" stroke-width="3" stroke-linecap="round" stroke-linejoin="round"/>
<path d="M1009 366.811C1004.67 365.42 1000.12 364.711 995.548 364.713C989.758 364.702 984.027 365.816 978.707 367.988" stroke="#505050" stroke-width="3" stroke-linecap="round" stroke-linejoin="round"/>
<path d="M217.385 479H276.615C279.589 479 282 476.589 282 473.615V414.385C282 411.411 279.589 409 276.615 409H217.385C214.411 409 212 411.411 212 414.385V473.615C212 476.589 214.411 479 217.385 479Z" stroke="#505050" stroke-width="3" stroke-linecap="round" stroke-linejoin="round"/>
<path d="M259.075 441.339C264.275 441.339 268.491 437.124 268.491 431.924C268.491 426.724 264.275 422.509 259.075 422.509C253.875 422.509 249.66 426.724 249.66 431.924C249.66 437.124 253.875 441.339 259.075 441.339Z" stroke="#505050" stroke-width="3" stroke-linecap="round" stroke-linejoin="round"/>
<path d="M259.485 479C257.765 469.876 252.845 461.658 245.604 455.811C238.362 449.965 229.27 446.87 219.949 447.08C217.282 447.073 214.62 447.318 212 447.813" stroke="#505050" stroke-width="3" stroke-linecap="round" stroke-linejoin="round"/>
<path d="M281.999 459.811C277.666 458.42 273.122 457.711 268.548 457.713C262.758 457.702 257.027 458.816 251.707 460.988" stroke="#505050" stroke-width="3" stroke-linecap="round" stroke-linejoin="round"/>
<path d="M43.9935 281.145L68.5131 274.575C69.7442 274.245 70.4748 272.98 70.1449 271.749L63.5749 247.229C63.245 245.998 61.9796 245.267 60.7486 245.597L36.2289 252.167C34.9978 252.497 34.2673 253.763 34.5971 254.994L41.1671 279.513C41.497 280.744 42.7624 281.475 43.9935 281.145Z" stroke="#505050" stroke-width="2" stroke-linecap="round" stroke-linejoin="round"/>
<path d="M57.0742 260.93C59.2268 260.353 60.5042 258.141 59.9274 255.988C59.3507 253.836 57.1381 252.558 54.9855 253.135C52.8329 253.712 51.5555 255.924 52.1322 258.077C52.709 260.23 54.9216 261.507 57.0742 260.93Z" stroke="#505050" stroke-width="2" stroke-linecap="round" stroke-linejoin="round"/>
<path d="M61.4218 276.475C59.6976 272.889 56.7494 270.033 53.1031 268.416C49.4568 266.799 45.3497 266.526 41.5146 267.647C40.4096 267.94 39.335 268.336 38.305 268.832" stroke="#505050" stroke-width="2" stroke-linecap="round" stroke-linejoin="round"/>
<path d="M68.6146 266.035C66.6663 265.939 64.7067 266.15 62.8135 266.658C60.4154 267.295 58.1665 268.392 56.2051 269.882" stroke="#505050" stroke-width="2" stroke-linecap="round" stroke-linejoin="round"/>
<path d="M903.231 584H938.769C940.554 584 942 582.554 942 580.769V545.231C942 543.446 940.554 542 938.769 542H903.231C901.446 542 900 543.446 900 545.231V580.769C900 582.554 901.446 584 903.231 584Z" stroke="#505050" stroke-width="2" stroke-linecap="round" stroke-linejoin="round"/>
<path d="M928.245 561.403C931.365 561.403 933.894 558.874 933.894 555.754C933.894 552.634 931.365 550.105 928.245 550.105C925.125 550.105 922.596 552.634 922.596 555.754C922.596 558.874 925.125 561.403 928.245 561.403Z" stroke="#505050" stroke-width="2" stroke-linecap="round" stroke-linejoin="round"/>
<path d="M928.491 584C927.459 578.526 924.507 573.595 920.162 570.087C915.817 566.579 910.362 564.722 904.77 564.848C903.169 564.844 901.572 564.991 900 565.288" stroke="#505050" stroke-width="2" stroke-linecap="round" stroke-linejoin="round"/>
<path d="M942 572.487C939.399 571.652 936.673 571.227 933.929 571.228C930.455 571.221 927.016 571.89 923.824 573.193" stroke="#505050" stroke-width="2" stroke-linecap="round" stroke-linejoin="round"/>
<rect x="1031" y="162" width="85" height="85" rx="20" transform="rotate(15 1031 162)" fill="#CECDCD"/>
<path d="M1045.23 225.693L1069.75 232.263C1070.98 232.593 1072.25 231.862 1072.58 230.631L1079.15 206.112C1079.48 204.881 1078.75 203.615 1077.51 203.285L1052.99 196.715C1051.76 196.385 1050.5 197.116 1050.17 198.347L1043.6 222.867C1043.27 224.098 1044 225.363 1045.23 225.693Z" stroke="#505050" stroke-width="2" stroke-linecap="round" stroke-linejoin="round"/>
<path d="M1066.67 214.727C1068.82 215.304 1071.03 214.026 1071.61 211.874C1072.19 209.721 1070.91 207.509 1068.76 206.932C1066.6 206.355 1064.39 207.632 1063.81 209.785C1063.24 211.938 1064.51 214.15 1066.67 214.727Z" stroke="#505050" stroke-width="2" stroke-linecap="round" stroke-linejoin="round"/>
<path d="M1062.66 230.363C1062.96 226.395 1061.83 222.447 1059.48 219.224C1057.13 216 1053.71 213.711 1049.83 212.764C1048.73 212.465 1047.6 212.271 1046.46 212.185" stroke="#505050" stroke-width="2" stroke-linecap="round" stroke-linejoin="round"/>
<path d="M1074.11 224.917C1072.47 223.86 1070.67 223.063 1068.77 222.556C1066.38 221.909 1063.88 221.735 1061.44 222.044" stroke="#505050" stroke-width="2" stroke-linecap="round" stroke-linejoin="round"/>
<foreignObject x="1009.49" y="162.49" width="103.248" height="103.247"><div xmlns="http://www.w3.org/1999/xhtml" style="backdrop-filter:blur(0.5px);clip-path:url(#bgblur_0_875_21306_clip_path);height:100%;width:100%"></div></foreignObject><rect data-figma-bg-blur-radius="1" x="1029.29" y="159" width="90" height="90" rx="20" transform="rotate(15 1029.29 159)" fill="#CECDCD" fill-opacity="0.1"/>
<rect x="224" y="678" width="700" height="75" rx="37.5" fill="#262728"/>
<circle cx="274.5" cy="715.5" r="21.5" fill="#D9D9D9" stroke="#505050" stroke-width="2"/>
<path d="M275 716C277.761 716 280 713.761 280 711C280 708.239 277.761 706 275 706C272.239 706 270 708.239 270 711C270 713.761 272.239 716 275 716Z" stroke="#505050" stroke-linecap="round" stroke-linejoin="round"/>
<path d="M284 725C283.389 722.967 282.188 721.194 280.57 719.936C278.953 718.678 277.002 718 275 718C272.998 718 271.047 718.678 269.43 719.936C267.812 721.194 266.611 722.967 266 725H284Z" stroke="#505050" stroke-linecap="round" stroke-linejoin="round"/>
<circle cx="311.5" cy="715.5" r="21.5" fill="#D9D9D9" stroke="#505050" stroke-width="2"/>
<path d="M312 716C314.761 716 317 713.761 317 711C317 708.239 314.761 706 312 706C309.239 706 307 708.239 307 711C307 713.761 309.239 716 312 716Z" stroke="#505050" stroke-linecap="round" stroke-linejoin="round"/>
<path d="M321 725C320.389 722.967 319.188 721.194 317.57 719.936C315.953 718.678 314.002 718 312 718C309.998 718 308.047 718.678 306.43 719.936C304.812 721.194 303.611 722.967 303 725H321Z" stroke="#505050" stroke-linecap="round" stroke-linejoin="round"/>
<circle cx="350.5" cy="715.5" r="21.5" fill="#D9D9D9" stroke="#505050" stroke-width="2"/>
<path d="M351 716C353.761 716 356 713.761 356 711C356 708.239 353.761 706 351 706C348.239 706 346 708.239 346 711C346 713.761 348.239 716 351 716Z" stroke="#505050" stroke-linecap="round" stroke-linejoin="round"/>
<path d="M360 725C359.389 722.967 358.188 721.194 356.57 719.936C354.953 718.678 353.002 718 351 718C348.998 718 347.047 718.678 345.43 719.936C343.812 721.194 342.611 722.967 342 725H360Z" stroke="#505050" stroke-linecap="round" stroke-linejoin="round"/>
<circle cx="387.5" cy="715.5" r="21.5" fill="#D9D9D9" stroke="#505050" stroke-width="2"/>
<path d="M388 716C390.761 716 393 713.761 393 711C393 708.239 390.761 706 388 706C385.239 706 383 708.239 383 711C383 713.761 385.239 716 388 716Z" stroke="#505050" stroke-linecap="round" stroke-linejoin="round"/>
<path d="M397 725C396.389 722.967 395.188 721.194 393.57 719.936C391.953 718.678 390.002 718 388 718C385.998 718 384.047 718.678 382.43 719.936C380.812 721.194 379.611 722.967 379 725H397Z" stroke="#505050" stroke-linecap="round" stroke-linejoin="round"/>
<path d="M427.358 722V709.636H429.224V715.009H435.387V709.636H437.259V722H435.387V716.609H429.224V722H427.358ZM442.189 722.205C441.602 722.205 441.07 722.097 440.595 721.879C440.12 721.658 439.744 721.338 439.466 720.919C439.193 720.501 439.056 719.988 439.056 719.38C439.056 718.857 439.157 718.426 439.358 718.088C439.559 717.75 439.831 717.482 440.173 717.285C440.515 717.088 440.897 716.939 441.32 716.838C441.742 716.738 442.173 716.661 442.612 716.609C443.167 716.545 443.618 716.492 443.964 716.452C444.31 716.408 444.562 716.337 444.719 716.241C444.876 716.144 444.954 715.987 444.954 715.77V715.728C444.954 715.2 444.805 714.792 444.507 714.502C444.214 714.212 443.775 714.067 443.191 714.067C442.584 714.067 442.105 714.202 441.754 714.472C441.408 714.738 441.169 715.033 441.036 715.359L439.34 714.973C439.541 714.41 439.835 713.955 440.221 713.609C440.611 713.259 441.06 713.005 441.567 712.848C442.074 712.687 442.608 712.607 443.167 712.607C443.537 712.607 443.93 712.651 444.344 712.739C444.763 712.824 445.153 712.981 445.515 713.21C445.882 713.44 446.182 713.768 446.415 714.194C446.648 714.617 446.765 715.166 446.765 715.842V722H445.002V720.732H444.93C444.813 720.966 444.638 721.195 444.405 721.42C444.171 721.646 443.871 721.833 443.505 721.982C443.139 722.131 442.7 722.205 442.189 722.205ZM442.582 720.756C443.081 720.756 443.507 720.658 443.861 720.461C444.22 720.263 444.491 720.006 444.676 719.688C444.865 719.366 444.96 719.022 444.96 718.656V717.46C444.896 717.525 444.771 717.585 444.586 717.641C444.405 717.694 444.197 717.74 443.964 717.78C443.731 717.816 443.503 717.851 443.282 717.883C443.06 717.911 442.875 717.935 442.726 717.955C442.376 718 442.056 718.074 441.767 718.179C441.481 718.283 441.251 718.434 441.078 718.631C440.909 718.825 440.825 719.082 440.825 719.404C440.825 719.851 440.99 720.189 441.32 720.418C441.65 720.644 442.07 720.756 442.582 720.756ZM454.033 719.766L457.027 712.727H458.585L454.703 722H453.363L449.56 712.727H451.099L454.033 719.766ZM450.598 712.727V722H448.829V712.727H450.598ZM457.516 722V712.727H459.273V722H457.516ZM464.592 724.674V720.436H465.347C465.54 720.259 465.703 720.048 465.836 719.803C465.973 719.557 466.088 719.265 466.18 718.927C466.277 718.589 466.357 718.195 466.422 717.744C466.486 717.289 466.542 716.77 466.591 716.186L466.88 712.727H473.183V720.436H474.608V724.674H472.845V722H466.379V724.674H464.592ZM467.279 720.436H471.42V714.273H468.498L468.305 716.186C468.213 717.16 468.096 718.006 467.955 718.722C467.814 719.434 467.589 720.006 467.279 720.436ZM479.938 722.187C479.069 722.187 478.31 721.988 477.662 721.589C477.014 721.191 476.511 720.634 476.153 719.917C475.795 719.201 475.615 718.364 475.615 717.406C475.615 716.444 475.795 715.603 476.153 714.882C476.511 714.162 477.014 713.603 477.662 713.204C478.31 712.806 479.069 712.607 479.938 712.607C480.807 712.607 481.566 712.806 482.214 713.204C482.862 713.603 483.365 714.162 483.723 714.882C484.081 715.603 484.26 716.444 484.26 717.406C484.26 718.364 484.081 719.201 483.723 719.917C483.365 720.634 482.862 721.191 482.214 721.589C481.566 721.988 480.807 722.187 479.938 722.187ZM479.944 720.672C480.507 720.672 480.974 720.523 481.344 720.225C481.715 719.927 481.988 719.531 482.166 719.036C482.347 718.541 482.437 717.996 482.437 717.4C482.437 716.808 482.347 716.265 482.166 715.77C481.988 715.271 481.715 714.87 481.344 714.569C480.974 714.267 480.507 714.116 479.944 714.116C479.376 714.116 478.906 714.267 478.531 714.569C478.161 714.87 477.885 715.271 477.704 715.77C477.527 716.265 477.439 716.808 477.439 717.4C477.439 717.996 477.527 718.541 477.704 719.036C477.885 719.531 478.161 719.927 478.531 720.225C478.906 720.523 479.376 720.672 479.944 720.672ZM485.935 722V712.727H489.781C490.827 712.727 491.656 712.951 492.268 713.397C492.88 713.84 493.185 714.442 493.185 715.202C493.185 715.746 493.012 716.176 492.666 716.494C492.32 716.812 491.861 717.026 491.29 717.134C491.704 717.183 492.085 717.307 492.431 717.509C492.777 717.706 493.055 717.971 493.264 718.305C493.477 718.639 493.584 719.038 493.584 719.501C493.584 719.992 493.457 720.426 493.204 720.805C492.95 721.179 492.582 721.473 492.099 721.686C491.62 721.895 491.042 722 490.366 722H485.935ZM487.632 720.491H490.366C490.813 720.491 491.163 720.384 491.417 720.171C491.67 719.958 491.797 719.668 491.797 719.301C491.797 718.871 491.67 718.533 491.417 718.287C491.163 718.038 490.813 717.913 490.366 717.913H487.632V720.491ZM487.632 716.591H489.799C490.137 716.591 490.427 716.543 490.668 716.446C490.914 716.349 491.101 716.213 491.23 716.036C491.362 715.854 491.429 715.641 491.429 715.396C491.429 715.037 491.282 714.758 490.988 714.556C490.694 714.355 490.292 714.255 489.781 714.255H487.632V716.591ZM499.22 722.187C498.307 722.187 497.52 721.992 496.86 721.602C496.204 721.207 495.697 720.654 495.339 719.941C494.985 719.225 494.808 718.386 494.808 717.424C494.808 716.474 494.985 715.637 495.339 714.913C495.697 714.188 496.196 713.623 496.836 713.216C497.48 712.81 498.232 712.607 499.094 712.607C499.617 712.607 500.124 712.693 500.615 712.866C501.106 713.039 501.547 713.311 501.937 713.681C502.328 714.051 502.635 714.532 502.861 715.124C503.086 715.712 503.199 716.426 503.199 717.267V717.907H495.828V716.555H501.43C501.43 716.08 501.333 715.659 501.14 715.293C500.947 714.923 500.675 714.631 500.325 714.418C499.979 714.204 499.573 714.098 499.106 714.098C498.599 714.098 498.156 714.222 497.778 714.472C497.403 714.717 497.114 715.039 496.908 715.438C496.707 715.832 496.607 716.261 496.607 716.724V717.78C496.607 718.4 496.715 718.927 496.933 719.362C497.154 719.797 497.462 720.129 497.856 720.358C498.251 720.583 498.711 720.696 499.239 720.696C499.581 720.696 499.893 720.648 500.174 720.551C500.456 720.451 500.7 720.302 500.905 720.104C501.11 719.907 501.267 719.664 501.376 719.374L503.084 719.682C502.947 720.185 502.702 720.626 502.348 721.004C501.997 721.378 501.557 721.67 501.026 721.879C500.498 722.085 499.897 722.187 499.22 722.187ZM504.862 725.477V712.727H506.624V714.23H506.775C506.88 714.037 507.031 713.814 507.228 713.56C507.425 713.307 507.699 713.085 508.049 712.896C508.399 712.703 508.862 712.607 509.438 712.607C510.186 712.607 510.854 712.796 511.442 713.174C512.029 713.552 512.49 714.098 512.824 714.81C513.162 715.522 513.331 716.38 513.331 717.382C513.331 718.384 513.164 719.243 512.83 719.96C512.496 720.672 512.037 721.221 511.454 721.608C510.87 721.99 510.204 722.181 509.456 722.181C508.892 722.181 508.431 722.087 508.073 721.897C507.719 721.708 507.441 721.487 507.24 721.233C507.039 720.98 506.884 720.754 506.775 720.557H506.667V725.477H504.862ZM506.63 717.364C506.63 718.016 506.725 718.587 506.914 719.078C507.103 719.569 507.377 719.953 507.735 720.231C508.093 720.505 508.532 720.642 509.051 720.642C509.591 720.642 510.041 720.499 510.403 720.213C510.766 719.923 511.039 719.531 511.225 719.036C511.414 718.541 511.508 717.983 511.508 717.364C511.508 716.752 511.416 716.203 511.231 715.716C511.049 715.229 510.776 714.844 510.41 714.562C510.047 714.281 509.595 714.14 509.051 714.14C508.528 714.14 508.085 714.275 507.723 714.544C507.365 714.814 507.093 715.19 506.908 715.673C506.723 716.156 506.63 716.72 506.63 717.364ZM520.544 722V714.267H518.322C517.795 714.267 517.384 714.389 517.09 714.635C516.797 714.88 516.65 715.202 516.65 715.601C516.65 715.995 516.785 716.313 517.054 716.555C517.328 716.792 517.71 716.911 518.201 716.911H521.069V718.372H518.201C517.517 718.372 516.925 718.259 516.426 718.034C515.931 717.804 515.549 717.48 515.279 717.062C515.014 716.643 514.881 716.148 514.881 715.577C514.881 714.993 515.018 714.49 515.291 714.067C515.569 713.641 515.966 713.311 516.481 713.077C517 712.844 517.614 712.727 518.322 712.727H522.24V722H520.544ZM514.458 722L517.072 717.315H518.92L516.306 722H514.458ZM528.969 716.651V718.221H524.025V716.651H528.969ZM525.492 712.727V722H523.687V712.727H525.492ZM531.795 722.187C530.933 722.187 530.181 721.986 529.537 721.583C528.893 721.181 528.394 720.622 528.04 719.905C527.685 719.185 527.508 718.35 527.508 717.4C527.508 716.442 527.685 715.605 528.04 714.888C528.394 714.168 528.893 713.609 529.537 713.21C530.181 712.808 530.933 712.607 531.795 712.607C532.66 712.607 533.412 712.808 534.052 713.21C534.696 713.609 535.195 714.168 535.549 714.888C535.908 715.605 536.087 716.442 536.087 717.4C536.087 718.35 535.908 719.185 535.549 719.905C535.195 720.622 534.696 721.181 534.052 721.583C533.412 721.986 532.66 722.187 531.795 722.187ZM531.795 720.642C532.378 720.642 532.855 720.495 533.225 720.201C533.6 719.903 533.875 719.509 534.052 719.018C534.229 718.527 534.318 717.987 534.318 717.4C534.318 716.808 534.229 716.267 534.052 715.776C533.875 715.281 533.6 714.884 533.225 714.587C532.855 714.289 532.378 714.14 531.795 714.14C531.215 714.14 530.738 714.289 530.364 714.587C529.989 714.884 529.714 715.281 529.537 715.776C529.36 716.267 529.271 716.808 529.271 717.4C529.271 717.987 529.36 718.527 529.537 719.018C529.714 719.509 529.989 719.903 530.364 720.201C530.738 720.495 531.215 720.642 531.795 720.642ZM536.758 714.285V712.727H544.582V714.285H541.557V722H539.795V714.285H536.758ZM549.791 714.285V712.727H557.615V714.285H554.59V722H552.827V714.285H549.791ZM560.542 715.915H563.235C564.37 715.915 565.243 716.196 565.855 716.76C566.466 717.323 566.772 718.05 566.772 718.939C566.772 719.519 566.635 720.04 566.362 720.503C566.088 720.966 565.688 721.332 565.16 721.602C564.633 721.867 563.991 722 563.235 722H559.184V712.727H560.953V720.442H563.235C563.754 720.442 564.18 720.308 564.515 720.038C564.849 719.764 565.016 719.416 565.016 718.994C565.016 718.547 564.849 718.183 564.515 717.901C564.18 717.615 563.754 717.472 563.235 717.472H560.542V715.915ZM568.088 722V712.727H569.893V722H568.088ZM575.882 722.187C574.984 722.187 574.211 721.984 573.563 721.577C572.919 721.167 572.424 720.601 572.078 719.881C571.732 719.161 571.559 718.336 571.559 717.406C571.559 716.464 571.736 715.633 572.09 714.913C572.445 714.188 572.944 713.623 573.588 713.216C574.232 712.81 574.99 712.607 575.864 712.607C576.568 712.607 577.196 712.737 577.747 712.999C578.298 713.257 578.743 713.619 579.081 714.086C579.423 714.552 579.627 715.098 579.691 715.722H577.934C577.838 715.287 577.616 714.913 577.27 714.599C576.928 714.285 576.469 714.128 575.894 714.128C575.391 714.128 574.95 714.261 574.572 714.526C574.197 714.788 573.906 715.162 573.696 715.649C573.487 716.132 573.382 716.704 573.382 717.364C573.382 718.04 573.485 718.623 573.69 719.114C573.895 719.605 574.185 719.986 574.56 720.255C574.938 720.525 575.383 720.66 575.894 720.66C576.236 720.66 576.546 720.597 576.823 720.473C577.105 720.344 577.341 720.161 577.53 719.923C577.723 719.686 577.858 719.4 577.934 719.066H579.691C579.627 719.666 579.431 720.201 579.105 720.672C578.779 721.143 578.343 721.513 577.795 721.783C577.252 722.052 576.614 722.187 575.882 722.187ZM586.811 722V714.267H584.589C584.062 714.267 583.652 714.389 583.358 714.635C583.064 714.88 582.917 715.202 582.917 715.601C582.917 715.995 583.052 716.313 583.322 716.555C583.595 716.792 583.978 716.911 584.469 716.911H587.336V718.372H584.469C583.785 718.372 583.193 718.259 582.694 718.034C582.199 717.804 581.817 717.48 581.547 717.062C581.281 716.643 581.148 716.148 581.148 715.577C581.148 714.993 581.285 714.49 581.559 714.067C581.837 713.641 582.233 713.311 582.748 713.077C583.267 712.844 583.881 712.727 584.589 712.727H588.507V722H586.811ZM580.726 722L583.34 717.315H585.187L582.573 722H580.726ZM598.014 712.727V722H596.251V712.727H598.014ZM597.247 717.032V718.589C596.969 718.702 596.675 718.802 596.366 718.891C596.056 718.975 595.73 719.042 595.388 719.09C595.046 719.138 594.689 719.163 594.319 719.163C593.172 719.163 592.26 718.883 591.584 718.324C590.908 717.76 590.57 716.899 590.57 715.74V712.709H592.327V715.74C592.327 716.178 592.407 716.535 592.568 716.808C592.729 717.082 592.959 717.283 593.257 717.412C593.554 717.541 593.909 717.605 594.319 717.605C594.862 717.605 595.363 717.555 595.822 717.454C596.285 717.35 596.76 717.209 597.247 717.032ZM601.844 719.471L605.931 712.727H607.875V722H606.106V715.251L602.037 722H600.075V712.727H601.844V719.471ZM614.12 722V712.727H621.685V722H619.916V714.285H615.877V722H614.12ZM627.664 722.187C626.795 722.187 626.036 721.988 625.388 721.589C624.74 721.191 624.237 720.634 623.879 719.917C623.521 719.201 623.341 718.364 623.341 717.406C623.341 716.444 623.521 715.603 623.879 714.882C624.237 714.162 624.74 713.603 625.388 713.204C626.036 712.806 626.795 712.607 627.664 712.607C628.533 712.607 629.292 712.806 629.94 713.204C630.588 713.603 631.091 714.162 631.449 714.882C631.807 715.603 631.986 716.444 631.986 717.406C631.986 718.364 631.807 719.201 631.449 719.917C631.091 720.634 630.588 721.191 629.94 721.589C629.292 721.988 628.533 722.187 627.664 722.187ZM627.67 720.672C628.233 720.672 628.7 720.523 629.07 720.225C629.441 719.927 629.714 719.531 629.892 719.036C630.073 718.541 630.163 717.996 630.163 717.4C630.163 716.808 630.073 716.265 629.892 715.77C629.714 715.271 629.441 714.87 629.07 714.569C628.7 714.267 628.233 714.116 627.67 714.116C627.102 714.116 626.632 714.267 626.257 714.569C625.887 714.87 625.611 715.271 625.43 715.77C625.253 716.265 625.165 716.808 625.165 717.4C625.165 717.996 625.253 718.541 625.43 719.036C625.611 719.531 625.887 719.927 626.257 720.225C626.632 720.523 627.102 720.672 627.67 720.672ZM632.931 722L632.925 720.436H633.257C633.514 720.436 633.73 720.382 633.903 720.273C634.08 720.161 634.225 719.972 634.337 719.706C634.45 719.44 634.537 719.074 634.597 718.607C634.657 718.136 634.702 717.545 634.73 716.832L634.893 712.727H641.364V722H639.595V714.285H636.565L636.42 717.436C636.384 718.201 636.305 718.869 636.185 719.44C636.068 720.012 635.897 720.489 635.671 720.871C635.446 721.249 635.156 721.533 634.802 721.722C634.448 721.907 634.017 722 633.51 722H632.931ZM644.79 715.915H647.482C648.617 715.915 649.491 716.196 650.102 716.76C650.714 717.323 651.02 718.05 651.02 718.939C651.02 719.519 650.883 720.04 650.609 720.503C650.336 720.966 649.935 721.332 649.408 721.602C648.881 721.867 648.239 722 647.482 722H643.432V712.727H645.2V720.442H647.482C648.001 720.442 648.428 720.308 648.762 720.038C649.096 719.764 649.263 719.416 649.263 718.994C649.263 718.547 649.096 718.183 648.762 717.901C648.428 717.615 648.001 717.472 647.482 717.472H644.79V715.915ZM652.154 719.549H654.002C654.026 719.927 654.197 720.219 654.515 720.424C654.837 720.63 655.253 720.732 655.765 720.732C656.284 720.732 656.726 720.622 657.093 720.4C657.459 720.175 657.642 719.827 657.642 719.356C657.642 719.074 657.572 718.829 657.431 718.619C657.294 718.406 657.099 718.241 656.845 718.124C656.596 718.008 656.3 717.949 655.958 717.949H654.448V716.531H655.958C656.469 716.531 656.851 716.414 657.105 716.18C657.358 715.947 657.485 715.655 657.485 715.305C657.485 714.927 657.348 714.623 657.075 714.393C656.805 714.16 656.429 714.043 655.946 714.043C655.455 714.043 655.046 714.154 654.72 714.375C654.394 714.593 654.223 714.874 654.207 715.221H652.384C652.396 714.701 652.553 714.247 652.855 713.856C653.161 713.462 653.571 713.156 654.086 712.939C654.605 712.717 655.195 712.607 655.855 712.607C656.543 712.607 657.139 712.717 657.642 712.939C658.145 713.16 658.533 713.466 658.807 713.856C659.085 714.247 659.224 714.695 659.224 715.202C659.224 715.714 659.071 716.132 658.765 716.458C658.463 716.78 658.069 717.011 657.582 717.152V717.249C657.94 717.273 658.258 717.382 658.535 717.575C658.813 717.768 659.031 718.024 659.187 718.342C659.344 718.66 659.423 719.02 659.423 719.422C659.423 719.99 659.266 720.481 658.952 720.895C658.642 721.31 658.212 721.63 657.66 721.855C657.113 722.076 656.487 722.187 655.783 722.187C655.098 722.187 654.485 722.08 653.941 721.867C653.402 721.65 652.973 721.344 652.656 720.95C652.342 720.555 652.175 720.088 652.154 719.549ZM664.853 722.187C663.983 722.187 663.225 721.988 662.577 721.589C661.929 721.191 661.426 720.634 661.068 719.917C660.709 719.201 660.53 718.364 660.53 717.406C660.53 716.444 660.709 715.603 661.068 714.882C661.426 714.162 661.929 713.603 662.577 713.204C663.225 712.806 663.983 712.607 664.853 712.607C665.722 712.607 666.481 712.806 667.129 713.204C667.777 713.603 668.28 714.162 668.638 714.882C668.996 715.603 669.175 716.444 669.175 717.406C669.175 718.364 668.996 719.201 668.638 719.917C668.28 720.634 667.777 721.191 667.129 721.589C666.481 721.988 665.722 722.187 664.853 722.187ZM664.859 720.672C665.422 720.672 665.889 720.523 666.259 720.225C666.63 719.927 666.903 719.531 667.08 719.036C667.261 718.541 667.352 717.996 667.352 717.4C667.352 716.808 667.261 716.265 667.08 715.77C666.903 715.271 666.63 714.87 666.259 714.569C665.889 714.267 665.422 714.116 664.859 714.116C664.291 714.116 663.82 714.267 663.446 714.569C663.076 714.87 662.8 715.271 662.619 715.77C662.442 716.265 662.353 716.808 662.353 717.4C662.353 717.996 662.442 718.541 662.619 719.036C662.8 719.531 663.076 719.927 663.446 720.225C663.82 720.523 664.291 720.672 664.859 720.672ZM670.85 722V712.727H674.696C675.742 712.727 676.571 712.951 677.183 713.397C677.794 713.84 678.1 714.442 678.1 715.202C678.1 715.746 677.927 716.176 677.581 716.494C677.235 716.812 676.776 717.026 676.205 717.134C676.619 717.183 677 717.307 677.346 717.509C677.692 717.706 677.97 717.971 678.179 718.305C678.392 718.639 678.499 719.038 678.499 719.501C678.499 719.992 678.372 720.426 678.118 720.805C677.865 721.179 677.497 721.473 677.014 721.686C676.535 721.895 675.957 722 675.281 722H670.85ZM672.546 720.491H675.281C675.728 720.491 676.078 720.384 676.332 720.171C676.585 719.958 676.712 719.668 676.712 719.301C676.712 718.871 676.585 718.533 676.332 718.287C676.078 718.038 675.728 717.913 675.281 717.913H672.546V720.491ZM672.546 716.591H674.714C675.052 716.591 675.341 716.543 675.583 716.446C675.828 716.349 676.016 716.213 676.144 716.036C676.277 715.854 676.344 715.641 676.344 715.396C676.344 715.037 676.197 714.758 675.903 714.556C675.609 714.355 675.207 714.255 674.696 714.255H672.546V716.591ZM682.837 722.205C682.25 722.205 681.719 722.097 681.244 721.879C680.769 721.658 680.392 721.338 680.115 720.919C679.841 720.501 679.704 719.988 679.704 719.38C679.704 718.857 679.805 718.426 680.006 718.088C680.207 717.75 680.479 717.482 680.821 717.285C681.163 717.088 681.546 716.939 681.968 716.838C682.391 716.738 682.821 716.661 683.26 716.609C683.815 716.545 684.266 716.492 684.612 716.452C684.958 716.408 685.21 716.337 685.367 716.241C685.524 716.144 685.602 715.987 685.602 715.77V715.728C685.602 715.2 685.453 714.792 685.156 714.502C684.862 714.212 684.423 714.067 683.84 714.067C683.232 714.067 682.753 714.202 682.403 714.472C682.057 714.738 681.817 715.033 681.684 715.359L679.988 714.973C680.189 714.41 680.483 713.955 680.869 713.609C681.26 713.259 681.709 713.005 682.216 712.848C682.723 712.687 683.256 712.607 683.815 712.607C684.186 712.607 684.578 712.651 684.993 712.739C685.411 712.824 685.802 712.981 686.164 713.21C686.53 713.44 686.83 713.768 687.063 714.194C687.297 714.617 687.413 715.166 687.413 715.842V722H685.651V720.732H685.578C685.461 720.966 685.286 721.195 685.053 721.42C684.82 721.646 684.52 721.833 684.153 721.982C683.787 722.131 683.349 722.205 682.837 722.205ZM683.23 720.756C683.729 720.756 684.155 720.658 684.51 720.461C684.868 720.263 685.139 720.006 685.325 719.688C685.514 719.366 685.608 719.022 685.608 718.656V717.46C685.544 717.525 685.419 717.585 685.234 717.641C685.053 717.694 684.846 717.74 684.612 717.78C684.379 717.816 684.151 717.851 683.93 717.883C683.709 717.911 683.524 717.935 683.375 717.955C683.025 718 682.705 718.074 682.415 718.179C682.129 718.283 681.9 718.434 681.727 718.631C681.558 718.825 681.473 719.082 681.473 719.404C681.473 719.851 681.638 720.189 681.968 720.418C682.298 720.644 682.719 720.756 683.23 720.756ZM688.328 714.285V712.727H696.151V714.285H693.127V722H691.364V714.285H688.328ZM701.285 722.187C700.372 722.187 699.585 721.992 698.925 721.602C698.269 721.207 697.762 720.654 697.404 719.941C697.05 719.225 696.872 718.386 696.872 717.424C696.872 716.474 697.05 715.637 697.404 714.913C697.762 714.188 698.261 713.623 698.901 713.216C699.545 712.81 700.297 712.607 701.159 712.607C701.682 712.607 702.189 712.693 702.68 712.866C703.171 713.039 703.612 713.311 704.002 713.681C704.392 714.051 704.7 714.532 704.926 715.124C705.151 715.712 705.264 716.426 705.264 717.267V717.907H697.893V716.555H703.495C703.495 716.08 703.398 715.659 703.205 715.293C703.012 714.923 702.74 714.631 702.39 714.418C702.044 714.204 701.638 714.098 701.171 714.098C700.664 714.098 700.221 714.222 699.843 714.472C699.468 714.717 699.179 715.039 698.973 715.438C698.772 715.832 698.671 716.261 698.671 716.724V717.78C698.671 718.4 698.78 718.927 698.997 719.362C699.219 719.797 699.527 720.129 699.921 720.358C700.316 720.583 700.776 720.696 701.304 720.696C701.646 720.696 701.958 720.648 702.239 720.551C702.521 720.451 702.764 720.302 702.97 720.104C703.175 719.907 703.332 719.664 703.441 719.374L705.149 719.682C705.012 720.185 704.767 720.626 704.413 721.004C704.062 721.378 703.622 721.67 703.09 721.879C702.563 722.085 701.962 722.187 701.285 722.187ZM706.196 722L706.19 720.436H706.522C706.78 720.436 706.995 720.382 707.168 720.273C707.345 720.161 707.49 719.972 707.603 719.706C707.715 719.44 707.802 719.074 707.862 718.607C707.923 718.136 707.967 717.545 707.995 716.832L708.158 712.727H714.63V722H712.861V714.285H709.83L709.685 717.436C709.649 718.201 709.571 718.869 709.45 719.44C709.333 720.012 709.162 720.489 708.937 720.871C708.711 721.249 708.422 721.533 708.067 721.722C707.713 721.907 707.283 722 706.776 722H706.196ZM720.693 722.187C719.78 722.187 718.993 721.992 718.333 721.602C717.677 721.207 717.17 720.654 716.812 719.941C716.457 719.225 716.28 718.386 716.28 717.424C716.28 716.474 716.457 715.637 716.812 714.913C717.17 714.188 717.669 713.623 718.309 713.216C718.953 712.81 719.705 712.607 720.567 712.607C721.09 712.607 721.597 712.693 722.088 712.866C722.579 713.039 723.02 713.311 723.41 713.681C723.8 714.051 724.108 714.532 724.334 715.124C724.559 715.712 724.672 716.426 724.672 717.267V717.907H717.301V716.555H722.903C722.903 716.08 722.806 715.659 722.613 715.293C722.42 714.923 722.148 714.631 721.798 714.418C721.452 714.204 721.045 714.098 720.579 714.098C720.071 714.098 719.629 714.222 719.25 714.472C718.876 714.717 718.586 715.039 718.381 715.438C718.18 715.832 718.079 716.261 718.079 716.724V717.78C718.079 718.4 718.188 718.927 718.405 719.362C718.627 719.797 718.935 720.129 719.329 720.358C719.723 720.583 720.184 720.696 720.711 720.696C721.054 720.696 721.365 720.648 721.647 720.551C721.929 720.451 722.172 720.302 722.378 720.104C722.583 719.907 722.74 719.664 722.848 719.374L724.557 719.682C724.42 720.185 724.175 720.626 723.82 721.004C723.47 721.378 723.03 721.67 722.498 721.879C721.971 722.085 721.369 722.187 720.693 722.187ZM728.103 719.471L732.19 712.727H734.134V722H732.365V715.251L728.296 722H726.334V712.727H728.103V719.471ZM731.417 709.588H732.903C732.903 710.268 732.661 710.822 732.178 711.248C731.699 711.671 731.051 711.882 730.234 711.882C729.421 711.882 728.775 711.671 728.296 711.248C727.817 710.822 727.578 710.268 727.578 709.588H729.057C729.057 709.89 729.146 710.158 729.323 710.391C729.5 710.62 729.804 710.735 730.234 710.735C730.657 710.735 730.959 710.62 731.14 710.391C731.325 710.162 731.417 709.894 731.417 709.588ZM745.843 715.993V717.557H740.362V715.993H745.843ZM752.068 722V712.727H759.632V722H757.864V714.285H753.825V722H752.068ZM761.706 725.477V712.727H763.468V714.23H763.619C763.724 714.037 763.875 713.814 764.072 713.56C764.269 713.307 764.543 713.085 764.893 712.896C765.243 712.703 765.706 712.607 766.282 712.607C767.03 712.607 767.698 712.796 768.286 713.174C768.874 713.552 769.334 714.098 769.668 714.81C770.006 715.522 770.176 716.38 770.176 717.382C770.176 718.384 770.008 719.243 769.674 719.96C769.34 720.672 768.882 721.221 768.298 721.608C767.714 721.99 767.048 722.181 766.3 722.181C765.736 722.181 765.276 722.087 764.917 721.897C764.563 721.708 764.285 721.487 764.084 721.233C763.883 720.98 763.728 720.754 763.619 720.557H763.511V725.477H761.706ZM763.475 717.364C763.475 718.016 763.569 718.587 763.758 719.078C763.947 719.569 764.221 719.953 764.579 720.231C764.937 720.505 765.376 720.642 765.895 720.642C766.435 720.642 766.885 720.499 767.248 720.213C767.61 719.923 767.883 719.531 768.069 719.036C768.258 718.541 768.352 717.983 768.352 717.364C768.352 716.752 768.26 716.203 768.075 715.716C767.894 715.229 767.62 714.844 767.254 714.562C766.891 714.281 766.439 714.14 765.895 714.14C765.372 714.14 764.929 714.275 764.567 714.544C764.209 714.814 763.937 715.19 763.752 715.673C763.567 716.156 763.475 716.72 763.475 717.364ZM773.627 719.471L777.714 712.727H779.658V722H777.889V715.251L773.82 722H771.858V712.727H773.627V719.471ZM785.65 722.187C784.753 722.187 783.98 721.984 783.332 721.577C782.688 721.167 782.193 720.601 781.847 719.881C781.501 719.161 781.328 718.336 781.328 717.406C781.328 716.464 781.505 715.633 781.859 714.913C782.213 714.188 782.712 713.623 783.356 713.216C784 712.81 784.759 712.607 785.632 712.607C786.337 712.607 786.964 712.737 787.516 712.999C788.067 713.257 788.512 713.619 788.85 714.086C789.192 714.552 789.395 715.098 789.46 715.722H787.703C787.606 715.287 787.385 714.913 787.039 714.599C786.697 714.285 786.238 714.128 785.662 714.128C785.159 714.128 784.719 714.261 784.34 714.526C783.966 714.788 783.674 715.162 783.465 715.649C783.256 716.132 783.151 716.704 783.151 717.364C783.151 718.04 783.254 718.623 783.459 719.114C783.664 719.605 783.954 719.986 784.328 720.255C784.707 720.525 785.151 720.66 785.662 720.66C786.004 720.66 786.314 720.597 786.592 720.473C786.874 720.344 787.109 720.161 787.298 719.923C787.492 719.686 787.626 719.4 787.703 719.066H789.46C789.395 719.666 789.2 720.201 788.874 720.672C788.548 721.143 788.111 721.513 787.564 721.783C787.021 722.052 786.383 722.187 785.65 722.187ZM794.956 722.187C794.087 722.187 793.328 721.988 792.68 721.589C792.032 721.191 791.529 720.634 791.171 719.917C790.812 719.201 790.633 718.364 790.633 717.406C790.633 716.444 790.812 715.603 791.171 714.882C791.529 714.162 792.032 713.603 792.68 713.204C793.328 712.806 794.087 712.607 794.956 712.607C795.825 712.607 796.584 712.806 797.232 713.204C797.88 713.603 798.383 714.162 798.741 714.882C799.099 715.603 799.278 716.444 799.278 717.406C799.278 718.364 799.099 719.201 798.741 719.917C798.383 720.634 797.88 721.191 797.232 721.589C796.584 721.988 795.825 722.187 794.956 722.187ZM794.962 720.672C795.525 720.672 795.992 720.523 796.362 720.225C796.733 719.927 797.006 719.531 797.183 719.036C797.365 718.541 797.455 717.996 797.455 717.4C797.455 716.808 797.365 716.265 797.183 715.77C797.006 715.271 796.733 714.87 796.362 714.569C795.992 714.267 795.525 714.116 794.962 714.116C794.394 714.116 793.924 714.267 793.549 714.569C793.179 714.87 792.903 715.271 792.722 715.77C792.545 716.265 792.457 716.808 792.457 717.4C792.457 717.996 792.545 718.541 792.722 719.036C792.903 719.531 793.179 719.927 793.549 720.225C793.924 720.523 794.394 720.672 794.962 720.672ZM804.95 722.187C804.036 722.187 803.249 721.992 802.589 721.602C801.933 721.207 801.426 720.654 801.068 719.941C800.714 719.225 800.537 718.386 800.537 717.424C800.537 716.474 800.714 715.637 801.068 714.913C801.426 714.188 801.925 713.623 802.565 713.216C803.209 712.81 803.962 712.607 804.823 712.607C805.346 712.607 805.853 712.693 806.344 712.866C806.835 713.039 807.276 713.311 807.666 713.681C808.057 714.051 808.364 714.532 808.59 715.124C808.815 715.712 808.928 716.426 808.928 717.267V717.907H801.557V716.555H807.159C807.159 716.08 807.062 715.659 806.869 715.293C806.676 714.923 806.404 714.631 806.054 714.418C805.708 714.204 805.302 714.098 804.835 714.098C804.328 714.098 803.885 714.222 803.507 714.472C803.132 714.717 802.843 715.039 802.637 715.438C802.436 715.832 802.336 716.261 802.336 716.724V717.78C802.336 718.4 802.444 718.927 802.662 719.362C802.883 719.797 803.191 720.129 803.585 720.358C803.98 720.583 804.44 720.696 804.968 720.696C805.31 720.696 805.622 720.648 805.903 720.551C806.185 720.451 806.429 720.302 806.634 720.104C806.839 719.907 806.996 719.664 807.105 719.374L808.813 719.682C808.676 720.185 808.431 720.626 808.077 721.004C807.727 721.378 807.286 721.67 806.755 721.879C806.227 722.085 805.626 722.187 804.95 722.187ZM809.685 724.674V720.436H810.44C810.633 720.259 810.796 720.048 810.929 719.803C811.066 719.557 811.18 719.265 811.273 718.927C811.369 718.589 811.45 718.195 811.514 717.744C811.579 717.289 811.635 716.77 811.683 716.186L811.973 712.727H818.276V720.436H819.7V724.674H817.938V722H811.472V724.674H809.685ZM812.372 720.436H816.513V714.273H813.591L813.398 716.186C813.305 717.16 813.189 718.006 813.048 718.722C812.907 719.434 812.681 720.006 812.372 720.436ZM822.893 719.471L826.981 712.727H828.924V722H827.156V715.251L823.087 722H821.125V712.727H822.893V719.471ZM837.296 716.585V718.148H832.273V716.585H837.296ZM832.78 712.727V722H831.011V712.727H832.78ZM838.557 712.727V722H836.795V712.727H838.557ZM846.162 722V714.267H843.94C843.413 714.267 843.003 714.389 842.709 714.635C842.415 714.88 842.268 715.202 842.268 715.601C842.268 715.995 842.403 716.313 842.673 716.555C842.946 716.792 843.329 716.911 843.82 716.911H846.687V718.372H843.82C843.136 718.372 842.544 718.259 842.045 718.034C841.55 717.804 841.167 717.48 840.898 717.062C840.632 716.643 840.499 716.148 840.499 715.577C840.499 714.993 840.636 714.49 840.91 714.067C841.188 713.641 841.584 713.311 842.099 713.077C842.618 712.844 843.232 712.727 843.94 712.727H847.858V722H846.162ZM840.077 722L842.691 717.315H844.538L841.924 722H840.077ZM851.69 719.471L855.777 712.727H857.721V722H855.952V715.251L851.883 722H849.921V712.727H851.69V719.471ZM855.004 709.588H856.489C856.489 710.268 856.248 710.822 855.765 711.248C855.286 711.671 854.638 711.882 853.821 711.882C853.008 711.882 852.362 711.671 851.883 711.248C851.404 710.822 851.165 710.268 851.165 709.588H852.644C852.644 709.89 852.732 710.158 852.909 710.391C853.086 710.62 853.39 710.735 853.821 710.735C854.244 710.735 854.545 710.62 854.726 710.391C854.912 710.162 855.004 709.894 855.004 709.588ZM858.658 714.285V712.727H866.481V714.285H863.457V722H861.694V714.285H858.658ZM871.615 722.187C870.702 722.187 869.915 721.992 869.255 721.602C868.599 721.207 868.092 720.654 867.734 719.941C867.38 719.225 867.202 718.386 867.202 717.424C867.202 716.474 867.38 715.637 867.734 714.913C868.092 714.188 868.591 713.623 869.231 713.216C869.875 712.81 870.627 712.607 871.489 712.607C872.012 712.607 872.519 712.693 873.01 712.866C873.501 713.039 873.942 713.311 874.332 713.681C874.722 714.051 875.03 714.532 875.256 715.124C875.481 715.712 875.594 716.426 875.594 717.267V717.907H868.223V716.555H873.825C873.825 716.08 873.728 715.659 873.535 715.293C873.342 714.923 873.07 714.631 872.72 714.418C872.374 714.204 871.968 714.098 871.501 714.098C870.994 714.098 870.551 714.222 870.173 714.472C869.798 714.717 869.509 715.039 869.303 715.438C869.102 715.832 869.001 716.261 869.001 716.724V717.78C869.001 718.4 869.11 718.927 869.327 719.362C869.549 719.797 869.857 720.129 870.251 720.358C870.646 720.583 871.106 720.696 871.634 720.696C871.976 720.696 872.288 720.648 872.569 720.551C872.851 720.451 873.094 720.302 873.3 720.104C873.505 719.907 873.662 719.664 873.771 719.374L875.479 719.682C875.342 720.185 875.097 720.626 874.743 721.004C874.392 721.378 873.952 721.67 873.42 721.879C872.893 722.085 872.292 722.187 871.615 722.187ZM881.162 722.187C880.265 722.187 879.492 721.984 878.844 721.577C878.2 721.167 877.705 720.601 877.359 719.881C877.013 719.161 876.84 718.336 876.84 717.406C876.84 716.464 877.017 715.633 877.371 714.913C877.725 714.188 878.224 713.623 878.868 713.216C879.512 712.81 880.271 712.607 881.144 712.607C881.849 712.607 882.476 712.737 883.028 712.999C883.579 713.257 884.024 713.619 884.362 714.086C884.704 714.552 884.907 715.098 884.972 715.722H883.215C883.118 715.287 882.897 714.913 882.551 714.599C882.209 714.285 881.75 714.128 881.175 714.128C880.671 714.128 880.231 714.261 879.852 714.526C879.478 714.788 879.186 715.162 878.977 715.649C878.768 716.132 878.663 716.704 878.663 717.364C878.663 718.04 878.766 718.623 878.971 719.114C879.176 719.605 879.466 719.986 879.84 720.255C880.219 720.525 880.663 720.66 881.175 720.66C881.517 720.66 881.827 720.597 882.104 720.473C882.386 720.344 882.621 720.161 882.811 719.923C883.004 719.686 883.139 719.4 883.215 719.066H884.972C884.907 719.666 884.712 720.201 884.386 720.672C884.06 721.143 883.623 721.513 883.076 721.783C882.533 722.052 881.895 722.187 881.162 722.187ZM887.92 715.915H890.613C891.748 715.915 892.621 716.196 893.233 716.76C893.845 717.323 894.15 718.05 894.15 718.939C894.15 719.519 894.014 720.04 893.74 720.503C893.466 720.966 893.066 721.332 892.539 721.602C892.011 721.867 891.369 722 890.613 722H886.562V712.727H888.331V720.442H890.613C891.132 720.442 891.559 720.308 891.893 720.038C892.227 719.764 892.394 719.416 892.394 718.994C892.394 718.547 892.227 718.183 891.893 717.901C891.559 717.615 891.132 717.472 890.613 717.472H887.92V715.915ZM898.11 709.636L897.953 718.444H896.281L896.124 709.636H898.11ZM897.12 722.115C896.786 722.115 896.5 721.998 896.263 721.765C896.026 721.527 895.909 721.241 895.913 720.907C895.909 720.577 896.026 720.296 896.263 720.062C896.5 719.825 896.786 719.706 897.12 719.706C897.446 719.706 897.728 719.825 897.965 720.062C898.203 720.296 898.324 720.577 898.328 720.907C898.324 721.129 898.265 721.332 898.153 721.517C898.044 721.698 897.899 721.843 897.718 721.952C897.537 722.06 897.338 722.115 897.12 722.115Z" fill="#FAFDFF"/>
<rect x="1000.65" y="3" width="45" height="45" rx="12" transform="rotate(15 1000.65 3)" fill="#3D3F40"/>
<path d="M1009.12 36.7874L1021.38 40.0725C1021.99 40.2374 1022.62 39.8721 1022.79 39.2566L1026.07 26.9967C1026.24 26.3812 1025.87 25.7485 1025.26 25.5836L1013 22.2986C1012.38 22.1336 1011.75 22.4989 1011.58 23.1145L1008.3 35.3743C1008.14 35.9898 1008.5 36.6225 1009.12 36.7874Z" stroke="#505050" stroke-linecap="round" stroke-linejoin="round"/>
<path d="M1019.83 31.3045C1020.91 31.5929 1022.02 30.9542 1022.31 29.8779C1022.59 28.8016 1021.95 27.6953 1020.88 27.4069C1019.8 27.1186 1018.7 27.7573 1018.41 28.8336C1018.12 29.9099 1018.76 31.0161 1019.83 31.3045Z" stroke="#505050" stroke-linecap="round" stroke-linejoin="round"/>
<path d="M1017.83 39.1224C1017.98 37.1386 1017.42 35.1646 1016.24 33.5529C1015.07 31.9411 1013.36 30.7963 1011.42 30.3228C1010.86 30.1734 1010.3 30.0766 1009.73 30.0336" stroke="#505050" stroke-linecap="round" stroke-linejoin="round"/>
<path d="M1023.55 36.3995C1022.73 35.871 1021.83 35.4724 1020.89 35.2192C1019.69 34.8956 1018.44 34.8084 1017.22 34.963" stroke="#505050" stroke-linecap="round" stroke-linejoin="round"/>
<foreignObject x="988.367" y="2.36743" width="56.5039" height="56.5024"><div xmlns="http://www.w3.org/1999/xhtml" style="backdrop-filter:blur(0.5px);clip-path:url(#bgblur_1_875_21306_clip_path);height:100%;width:100%"></div></foreignObject><rect data-figma-bg-blur-radius="1" x="998.941" width="50" height="50" rx="15" transform="rotate(15 998.941 0)" fill="#DBDBDB" fill-opacity="0.1"/>
<rect x="174" y="193.882" width="75" height="75" rx="20" transform="rotate(-15 174 193.882)" fill="#3D3F40"/>
<path d="M211.993 238.145L236.513 231.575C237.744 231.245 238.475 229.98 238.145 228.749L231.575 204.229C231.245 202.998 229.98 202.267 228.749 202.597L204.229 209.167C202.998 209.497 202.267 210.763 202.597 211.994L209.167 236.513C209.497 237.744 210.762 238.475 211.993 238.145Z" stroke="#505050" stroke-width="2" stroke-linecap="round" stroke-linejoin="round"/>
<path d="M225.074 217.93C227.227 217.353 228.504 215.141 227.927 212.988C227.351 210.836 225.138 209.558 222.985 210.135C220.833 210.712 219.555 212.924 220.132 215.077C220.709 217.23 222.922 218.507 225.074 217.93Z" stroke="#505050" stroke-width="2" stroke-linecap="round" stroke-linejoin="round"/>
<path d="M229.422 233.475C227.698 229.889 224.749 227.033 221.103 225.416C217.457 223.799 213.35 223.526 209.515 224.647C208.41 224.94 207.335 225.336 206.305 225.832" stroke="#505050" stroke-width="2" stroke-linecap="round" stroke-linejoin="round"/>
<path d="M236.615 223.035C234.666 222.939 232.707 223.15 230.813 223.658C228.415 224.295 226.166 225.392 224.205 226.882" stroke="#505050" stroke-width="2" stroke-linecap="round" stroke-linejoin="round"/>
<foreignObject x="176.49" y="177.49" width="86.875" height="86.876"><div xmlns="http://www.w3.org/1999/xhtml" style="backdrop-filter:blur(1px);clip-path:url(#bgblur_2_875_21306_clip_path);height:100%;width:100%"></div></foreignObject><rect data-figma-bg-blur-radius="2" x="174" y="194.411" width="75" height="75" rx="20" transform="rotate(-15 174 194.411)" fill="#3D3F40" fill-opacity="0.2"/>
<path d="M63.6617 211.097L80.0081 206.717C80.8288 206.497 81.3159 205.653 81.096 204.832L76.7159 188.486C76.496 187.665 75.6524 187.178 74.8317 187.398L58.4853 191.778C57.6646 191.998 57.1775 192.842 57.3974 193.662L61.7774 210.009C61.9974 210.829 62.8409 211.316 63.6617 211.097Z" stroke="#606064" stroke-linecap="round" stroke-linejoin="round"/>
<path d="M72.3835 197.62C73.8185 197.235 74.6701 195.76 74.2856 194.325C73.9011 192.89 72.426 192.039 70.991 192.423C69.5559 192.808 68.7043 194.283 69.0888 195.718C69.4733 197.153 70.9484 198.004 72.3835 197.62Z" stroke="#606064" stroke-linecap="round" stroke-linejoin="round"/>
<path d="M75.2806 207.983C74.1311 205.593 72.1656 203.688 69.7347 202.61C67.3039 201.532 64.5658 201.351 62.009 202.098C61.2724 202.293 60.556 202.558 59.8694 202.888" stroke="#606064" stroke-linecap="round" stroke-linejoin="round"/>
<path d="M80.0757 201.023C78.7769 200.959 77.4705 201.1 76.2083 201.438C74.6096 201.863 73.1103 202.595 71.8027 203.588" stroke="#606064" stroke-linecap="round" stroke-linejoin="round"/>
<foreignObject x="41.3672" y="171.367" width="56.502" height="56.5024"><div xmlns="http://www.w3.org/1999/xhtml" style="backdrop-filter:blur(0.5px);clip-path:url(#bgblur_3_875_21306_clip_path);height:100%;width:100%"></div></foreignObject><rect data-figma-bg-blur-radius="1" x="39" y="181.941" width="50" height="50" rx="15" transform="rotate(-15 39 181.941)" fill="#DBDBDB" fill-opacity="0.1"/>
<defs>
<clipPath id="bgblur_0_875_21306_clip_path" transform="translate(-1009.49 -162.49)"><rect x="1029.29" y="159" width="90" height="90" rx="20" transform="rotate(15 1029.29 159)"/>
</clipPath><clipPath id="bgblur_1_875_21306_clip_path" transform="translate(-988.367 -2.36743)"><rect x="998.941" width="50" height="50" rx="15" transform="rotate(15 998.941 0)"/>
</clipPath><clipPath id="bgblur_2_875_21306_clip_path" transform="translate(-176.49 -177.49)"><rect x="174" y="194.411" width="75" height="75" rx="20" transform="rotate(-15 174 194.411)"/>
</clipPath><clipPath id="bgblur_3_875_21306_clip_path" transform="translate(-41.3672 -171.367)"><rect x="39" y="181.941" width="50" height="50" rx="15" transform="rotate(-15 39 181.941)"/>
</clipPath></defs>
</svg>
